<?xml version="1.0"?>
<svg xmlns="http://www.w3.org/2000/svg" xmlns:xlink="http://www.w3.org/1999/xlink" width="500" zoomAndPan="magnify" viewBox="0 0 375 374.999991" height="500" preserveAspectRatio="xMidYMid meet" version="1.2" style="background-color:transparent;">
  <defs>
    <clipPath id="bfc8d5c10e">
      <path d="M 225 123 L 350 123 L 350 248 L 225 248 Z M 225 123 "/>
    </clipPath>
    <clipPath id="93ebba4f8e">
      <path d="M 359.882812 235.535156 L 237.789062 258.328125 L 214.996094 136.234375 L 337.089844 113.441406 Z M 359.882812 235.535156 "/>
    </clipPath>
    <clipPath id="36377b5674">
      <path d="M 298.835938 246.933594 C 332.550781 240.640625 354.78125 208.203125 348.488281 174.488281 C 342.191406 140.773438 309.757812 118.542969 276.042969 124.835938 C 242.328125 131.132812 220.097656 163.566406 226.390625 197.28125 C 232.683594 230.996094 265.121094 253.226562 298.835938 246.933594 Z M 298.835938 246.933594 "/>
    </clipPath>
    <clipPath id="e06d51ec65">
      <path d="M 84 82 L 209 82 L 209 207 L 84 207 Z M 84 82 "/>
    </clipPath>
    <clipPath id="903d85ae29">
      <path d="M 219.117188 193.964844 L 96.949219 216.773438 L 74.144531 94.605469 L 196.3125 71.796875 Z M 219.117188 193.964844 "/>
    </clipPath>
    <clipPath id="b99a3b2d69">
      <path d="M 158.035156 205.367188 C 191.769531 199.070312 214.011719 166.617188 207.714844 132.882812 C 201.417969 99.144531 168.964844 76.902344 135.226562 83.199219 C 101.492188 89.5 79.25 121.953125 85.546875 155.6875 C 91.84375 189.421875 124.296875 211.667969 158.035156 205.367188 Z M 158.035156 205.367188 "/>
    </clipPath>
    <clipPath id="d237690c21">
      <path d="M 65 146 L 208 146 L 208 289 L 65 289 Z M 65 146 "/>
    </clipPath>
    <clipPath id="3f38307036">
      <path d="M 219.492188 274.578125 L 79.824219 300.652344 L 53.75 160.984375 L 193.417969 134.910156 Z M 219.492188 274.578125 "/>
    </clipPath>
    <clipPath id="28af87d881">
      <path d="M 149.65625 287.617188 C 188.226562 280.417969 213.65625 243.3125 206.457031 204.746094 C 199.253906 166.175781 162.152344 140.746094 123.582031 147.949219 C 85.015625 155.148438 59.585938 192.25 66.785156 230.820312 C 73.988281 269.386719 111.089844 294.816406 149.65625 287.617188 Z M 149.65625 287.617188 "/>
    </clipPath>
    <clipPath id="5e5f20c9e1">
      <path d="M 176 173 L 289 173 L 289 286 L 176 286 Z M 176 173 "/>
    </clipPath>
    <clipPath id="e69c5d1214">
      <path d="M 297.535156 274.085938 L 187.386719 294.648438 L 166.824219 184.496094 L 276.972656 163.933594 Z M 297.535156 274.085938 "/>
    </clipPath>
    <clipPath id="daa89ac19d">
      <path d="M 242.460938 284.367188 C 272.878906 278.6875 292.933594 249.425781 287.253906 219.007812 C 281.578125 188.59375 252.316406 168.539062 221.898438 174.214844 C 191.480469 179.894531 171.429688 209.15625 177.105469 239.574219 C 182.785156 269.988281 212.046875 290.042969 242.460938 284.367188 Z M 242.460938 284.367188 "/>
    </clipPath>
    <clipPath id="3b2963290f">
      <path d="M 24 125 L 137 125 L 137 239 L 24 239 Z M 24 125 "/>
    </clipPath>
    <clipPath id="c1d93835ca">
      <path d="M 146.292969 226.910156 L 35.722656 247.550781 L 15.082031 136.980469 L 125.652344 116.339844 Z M 146.292969 226.910156 "/>
    </clipPath>
    <clipPath id="2c80b0add1">
      <path d="M 91.007812 237.230469 C 121.539062 231.53125 141.671875 202.15625 135.972656 171.625 C 130.273438 141.09375 100.898438 120.960938 70.367188 126.660156 C 39.835938 132.363281 19.703125 161.734375 25.402344 192.265625 C 31.101562 222.800781 60.476562 242.929688 91.007812 237.230469 Z M 91.007812 237.230469 "/>
    </clipPath>
    <clipPath id="f8ec4e9276">
      <path d="M 172 90 L 289 90 L 289 207 L 172 207 Z M 172 90 "/>
    </clipPath>
    <clipPath id="30658f8de1">
      <path d="M 298.226562 195.023438 L 183.777344 216.390625 L 162.410156 101.941406 L 276.863281 80.574219 Z M 298.226562 195.023438 "/>
    </clipPath>
    <clipPath id="1184c52daf">
      <path d="M 241.003906 205.707031 C 272.605469 199.804688 293.445312 169.402344 287.546875 137.796875 C 281.644531 106.195312 251.242188 85.355469 219.636719 91.257812 C 188.03125 97.15625 167.195312 127.558594 173.09375 159.164062 C 178.996094 190.769531 209.398438 211.605469 241.003906 205.707031 Z M 241.003906 205.707031 "/>
    </clipPath>
    <clipPath id="346199e820">
      <path d="M 132 166 L 219 166 L 219 252 L 132 252 Z M 132 166 "/>
    </clipPath>
    <clipPath id="fe210b69ad">
      <path d="M 225.582031 243.042969 L 141.4375 258.75 L 125.730469 174.605469 L 209.875 158.898438 Z M 225.582031 243.042969 "/>
    </clipPath>
    <clipPath id="977c8e4844">
      <path d="M 183.511719 250.898438 C 206.746094 246.558594 222.066406 224.207031 217.730469 200.96875 C 213.390625 177.734375 191.039062 162.414062 167.800781 166.753906 C 144.566406 171.089844 129.246094 193.441406 133.585938 216.679688 C 137.921875 239.914062 160.273438 255.234375 183.511719 250.898438 Z M 183.511719 250.898438 "/>
    </clipPath>
  </defs>
  <g id="ff3b9bdec8">
    <rect x="0" width="375" y="0" height="374.999991" style="fill:none;fill-opacity:1;stroke:none;" fill="none"/>
    <rect x="0" width="375" y="0" height="374.999991" style="fill:none;fill-opacity:1;stroke:none;" fill="none"/>
    <g clip-rule="nonzero" clip-path="url(#bfc8d5c10e)">
      <g clip-rule="nonzero" clip-path="url(#93ebba4f8e)">
        <g clip-rule="nonzero" clip-path="url(#36377b5674)">
          <path style=" stroke:none;fill-rule:nonzero;fill:#00a1e0;fill-opacity:1;" d="M 359.882812 235.535156 L 237.789062 258.328125 L 214.996094 136.234375 L 337.089844 113.441406 Z M 359.882812 235.535156 "/>
        </g>
      </g>
    </g>
    <g clip-rule="nonzero" clip-path="url(#e06d51ec65)">
      <g clip-rule="nonzero" clip-path="url(#903d85ae29)">
        <g clip-rule="nonzero" clip-path="url(#b99a3b2d69)">
          <path style=" stroke:none;fill-rule:nonzero;fill:#00a1e0;fill-opacity:1;" d="M 219.117188 193.964844 L 96.949219 216.773438 L 74.144531 94.605469 L 196.3125 71.796875 Z M 219.117188 193.964844 "/>
        </g>
      </g>
    </g>
    <g clip-rule="nonzero" clip-path="url(#d237690c21)">
      <g clip-rule="nonzero" clip-path="url(#3f38307036)">
        <g clip-rule="nonzero" clip-path="url(#28af87d881)">
          <path style=" stroke:none;fill-rule:nonzero;fill:#00a1e0;fill-opacity:1;" d="M 219.492188 274.578125 L 79.824219 300.652344 L 53.75 160.984375 L 193.417969 134.910156 Z M 219.492188 274.578125 "/>
        </g>
      </g>
    </g>
    <g clip-rule="nonzero" clip-path="url(#5e5f20c9e1)">
      <g clip-rule="nonzero" clip-path="url(#e69c5d1214)">
        <g clip-rule="nonzero" clip-path="url(#daa89ac19d)">
          <path style=" stroke:none;fill-rule:nonzero;fill:#00a1e0;fill-opacity:1;" d="M 297.535156 274.085938 L 187.386719 294.648438 L 166.824219 184.496094 L 276.972656 163.933594 Z M 297.535156 274.085938 "/>
        </g>
      </g>
    </g>
    <g clip-rule="nonzero" clip-path="url(#3b2963290f)">
      <g clip-rule="nonzero" clip-path="url(#c1d93835ca)">
        <g clip-rule="nonzero" clip-path="url(#2c80b0add1)">
          <path style=" stroke:none;fill-rule:nonzero;fill:#00a1e0;fill-opacity:1;" d="M 146.292969 226.910156 L 35.722656 247.550781 L 15.082031 136.980469 L 125.652344 116.339844 Z M 146.292969 226.910156 "/>
        </g>
      </g>
    </g>
    <g clip-rule="nonzero" clip-path="url(#f8ec4e9276)">
      <g clip-rule="nonzero" clip-path="url(#30658f8de1)">
        <g clip-rule="nonzero" clip-path="url(#1184c52daf)">
          <path style=" stroke:none;fill-rule:nonzero;fill:#00a1df;fill-opacity:1;" d="M 298.226562 195.023438 L 183.777344 216.390625 L 162.410156 101.941406 L 276.863281 80.574219 Z M 298.226562 195.023438 "/>
        </g>
      </g>
    </g>
    <g clip-rule="nonzero" clip-path="url(#346199e820)">
      <g clip-rule="nonzero" clip-path="url(#fe210b69ad)">
        <g clip-rule="nonzero" clip-path="url(#977c8e4844)">
          <path style=" stroke:none;fill-rule:nonzero;fill:#00a1e0;fill-opacity:1;" d="M 225.582031 243.042969 L 141.4375 258.75 L 125.730469 174.605469 L 209.875 158.898438 Z M 225.582031 243.042969 "/>
        </g>
      </g>
    </g>
  </g>
</svg>
